<?xml version="1.0" encoding="UTF-8"?>
<svg xmlns="http://www.w3.org/2000/svg" xmlns:xlink="http://www.w3.org/1999/xlink" width="596.408pt" height="359.803pt" viewBox="0 0 596.408 359.803" version="1.2">
<g id="surface1">
<path style=" stroke:none;fill-rule:nonzero;fill:rgb(13.729858%,12.159729%,12.548828%);fill-opacity:1;" d="M 178.785156 179.484375 L 179.230469 179.484375 L 206.898438 100.109375 L 235.082031 100.109375 L 235.082031 207.816406 L 213.480469 207.816406 L 213.480469 134.285156 L 213.039062 134.210938 L 186.40625 207.816406 L 171.757812 207.816406 L 145.125 134.0625 L 144.683594 134.136719 L 144.683594 207.816406 L 123.082031 207.816406 L 123.082031 100.109375 L 151.414062 100.109375 Z M 178.785156 179.484375 "/>
<path style=" stroke:none;fill-rule:nonzero;fill:rgb(13.729858%,12.159729%,12.548828%);fill-opacity:1;" d="M 300.054688 191.246094 L 348.285156 191.246094 L 348.285156 207.816406 L 278.453125 207.816406 L 278.453125 100.109375 L 300.054688 100.109375 Z M 300.054688 191.246094 "/>
<path style=" stroke:none;fill-rule:nonzero;fill:rgb(13.729858%,12.159729%,12.548828%);fill-opacity:1;" d="M 413.257812 152.113281 L 432.863281 152.113281 C 438.878906 152.113281 443.441406 150.472656 446.546875 147.195312 C 449.65625 143.914062 451.207031 139.734375 451.207031 134.65625 C 451.207031 129.476562 449.667969 125.199219 446.582031 121.820312 C 443.503906 118.441406 438.925781 116.753906 432.863281 116.753906 L 413.257812 116.753906 Z M 413.257812 168.757812 L 413.257812 207.816406 L 391.65625 207.816406 L 391.65625 100.109375 L 432.863281 100.109375 C 445.242188 100.109375 454.980469 103.265625 462.082031 109.578125 C 469.183594 115.890625 472.734375 124.199219 472.734375 134.507812 C 472.734375 144.816406 469.183594 153.097656 462.082031 159.363281 C 454.980469 165.625 445.242188 168.757812 432.863281 168.757812 Z M 413.257812 168.757812 "/>
<path style=" stroke:none;fill-rule:nonzero;fill:rgb(13.729858%,12.159729%,12.548828%);fill-opacity:1;" d="M 124.777344 243.554688 C 125.183594 244.359375 125.78125 244.972656 126.570312 245.394531 C 127.359375 245.816406 128.191406 246.027344 129.070312 246.027344 C 129.472656 246.027344 129.878906 245.964844 130.285156 245.832031 C 130.691406 245.703125 131.054688 245.519531 131.375 245.28125 C 131.695312 245.042969 131.957031 244.753906 132.160156 244.417969 C 132.359375 244.082031 132.460938 243.699219 132.460938 243.265625 C 132.460938 242.570312 132.242188 242.050781 131.808594 241.703125 C 131.367188 241.355469 130.828125 241.082031 130.1875 240.890625 C 129.550781 240.691406 128.84375 240.527344 128.078125 240.382812 C 127.308594 240.242188 126.601562 240.027344 125.964844 239.734375 C 125.324219 239.441406 124.785156 239.035156 124.347656 238.515625 C 123.910156 237.992188 123.691406 237.257812 123.691406 236.300781 C 123.691406 235.566406 123.839844 234.925781 124.136719 234.382812 C 124.4375 233.839844 124.828125 233.390625 125.308594 233.03125 C 125.785156 232.675781 126.324219 232.410156 126.921875 232.234375 C 127.519531 232.0625 128.128906 231.976562 128.746094 231.976562 C 129.964844 231.976562 131.015625 232.203125 131.902344 232.660156 C 132.789062 233.113281 133.476562 233.832031 133.964844 234.804688 L 132.238281 235.847656 C 131.875 235.152344 131.421875 234.628906 130.878906 234.269531 C 130.332031 233.910156 129.625 233.730469 128.746094 233.730469 C 128.40625 233.730469 128.050781 233.789062 127.675781 233.894531 C 127.300781 234.003906 126.964844 234.15625 126.667969 234.351562 C 126.371094 234.546875 126.117188 234.796875 125.914062 235.097656 C 125.710938 235.402344 125.609375 235.75 125.609375 236.140625 C 125.609375 236.8125 125.828125 237.3125 126.265625 237.636719 C 126.703125 237.960938 127.242188 238.21875 127.882812 238.402344 C 128.523438 238.585938 129.230469 238.742188 129.996094 238.871094 C 130.765625 239.003906 131.46875 239.214844 132.109375 239.507812 C 132.75 239.800781 133.289062 240.222656 133.726562 240.773438 C 134.164062 241.328125 134.382812 242.113281 134.382812 243.132812 C 134.382812 243.914062 134.238281 244.59375 133.953125 245.167969 C 133.664062 245.742188 133.269531 246.222656 132.765625 246.613281 C 132.265625 247.003906 131.695312 247.296875 131.054688 247.492188 C 130.414062 247.6875 129.742188 247.785156 129.039062 247.785156 C 127.757812 247.785156 126.589844 247.535156 125.53125 247.035156 C 124.472656 246.539062 123.65625 245.769531 123.082031 244.726562 Z M 124.777344 243.554688 "/>
<path style=" stroke:none;fill-rule:nonzero;fill:rgb(13.729858%,12.159729%,12.548828%);fill-opacity:1;" d="M 155.867188 234.121094 L 151.640625 234.121094 L 151.640625 243.914062 C 151.640625 244.585938 151.820312 245.105469 152.183594 245.476562 C 152.546875 245.84375 153.050781 246.027344 153.691406 246.027344 C 154.050781 246.027344 154.421875 245.980469 154.792969 245.882812 C 155.167969 245.785156 155.523438 245.660156 155.867188 245.507812 L 156.027344 247.265625 C 155.664062 247.394531 155.246094 247.515625 154.777344 247.621094 C 154.308594 247.730469 153.894531 247.785156 153.53125 247.785156 C 152.84375 247.785156 152.257812 247.683594 151.769531 247.476562 C 151.277344 247.269531 150.882812 246.996094 150.582031 246.648438 C 150.285156 246.300781 150.066406 245.894531 149.925781 245.425781 C 149.789062 244.960938 149.71875 244.457031 149.71875 243.914062 L 149.71875 234.121094 L 146.519531 234.121094 L 146.519531 232.367188 L 149.71875 232.367188 L 149.71875 228.039062 L 151.640625 228.039062 L 151.640625 232.367188 L 155.867188 232.367188 Z M 155.867188 234.121094 "/>
<path style=" stroke:none;fill-rule:nonzero;fill:rgb(13.729858%,12.159729%,12.548828%);fill-opacity:1;" d="M 182.054688 243.167969 C 182.054688 243.449219 182.066406 243.789062 182.089844 244.191406 C 182.109375 244.59375 182.125 245 182.136719 245.410156 C 182.148438 245.824219 182.164062 246.207031 182.183594 246.566406 C 182.207031 246.921875 182.214844 247.199219 182.214844 247.394531 L 180.296875 247.394531 C 180.273438 246.832031 180.257812 246.289062 180.246094 245.769531 C 180.238281 245.25 180.210938 244.914062 180.167969 244.757812 L 180.070312 244.757812 C 179.6875 245.582031 179.046875 246.292969 178.152344 246.890625 C 177.253906 247.488281 176.207031 247.785156 175.011719 247.785156 C 173.859375 247.785156 172.914062 247.601562 172.179688 247.230469 C 171.441406 246.863281 170.867188 246.382812 170.449219 245.785156 C 170.035156 245.1875 169.75 244.5 169.601562 243.71875 C 169.453125 242.9375 169.378906 242.136719 169.378906 241.3125 L 169.378906 232.367188 L 171.296875 232.367188 L 171.296875 241.214844 C 171.296875 241.820312 171.351562 242.414062 171.460938 242.988281 C 171.566406 243.5625 171.75 244.078125 172.019531 244.53125 C 172.285156 244.988281 172.660156 245.351562 173.140625 245.621094 C 173.621094 245.894531 174.246094 246.027344 175.011719 246.027344 C 175.71875 246.027344 176.382812 245.90625 177.011719 245.65625 C 177.644531 245.40625 178.1875 245.027344 178.648438 244.515625 C 179.105469 244.007812 179.46875 243.367188 179.734375 242.597656 C 180 241.828125 180.136719 240.921875 180.136719 239.878906 L 180.136719 232.367188 L 182.054688 232.367188 Z M 182.054688 243.167969 "/>
<path style=" stroke:none;fill-rule:nonzero;fill:rgb(13.729858%,12.159729%,12.548828%);fill-opacity:1;" d="M 210.710938 239.878906 C 210.710938 239.035156 210.550781 238.238281 210.230469 237.488281 C 209.910156 236.742188 209.472656 236.089844 208.917969 235.539062 C 208.363281 234.984375 207.710938 234.546875 206.964844 234.21875 C 206.21875 233.894531 205.40625 233.734375 204.53125 233.734375 C 203.636719 233.734375 202.824219 233.894531 202.097656 234.21875 C 201.375 234.546875 200.753906 234.984375 200.242188 235.539062 C 199.730469 236.089844 199.339844 236.742188 199.074219 237.488281 C 198.804688 238.238281 198.671875 239.035156 198.671875 239.878906 C 198.671875 240.726562 198.804688 241.523438 199.074219 242.273438 C 199.339844 243.019531 199.730469 243.667969 200.242188 244.222656 C 200.753906 244.777344 201.375 245.214844 202.097656 245.539062 C 202.824219 245.867188 203.636719 246.027344 204.53125 246.027344 C 205.40625 246.027344 206.21875 245.867188 206.964844 245.539062 C 207.710938 245.214844 208.363281 244.777344 208.917969 244.222656 C 209.472656 243.667969 209.910156 243.019531 210.230469 242.273438 C 210.550781 241.523438 210.710938 240.726562 210.710938 239.878906 M 210.519531 244.757812 L 210.457031 244.757812 C 210.15625 245.28125 209.785156 245.730469 209.335938 246.109375 C 208.886719 246.488281 208.402344 246.804688 207.878906 247.054688 C 207.355469 247.304688 206.804688 247.488281 206.230469 247.605469 C 205.652344 247.726562 205.085938 247.785156 204.53125 247.785156 C 203.402344 247.785156 202.355469 247.589844 201.394531 247.199219 C 200.433594 246.808594 199.613281 246.261719 198.929688 245.558594 C 198.246094 244.851562 197.714844 244.015625 197.328125 243.050781 C 196.945312 242.085938 196.753906 241.03125 196.753906 239.878906 C 196.753906 238.730469 196.945312 237.675781 197.328125 236.707031 C 197.714844 235.746094 198.246094 234.910156 198.929688 234.203125 C 199.613281 233.5 200.433594 232.953125 201.394531 232.5625 C 202.355469 232.171875 203.402344 231.976562 204.53125 231.976562 C 205.085938 231.976562 205.652344 232.035156 206.230469 232.15625 C 206.804688 232.273438 207.355469 232.457031 207.878906 232.707031 C 208.402344 232.957031 208.886719 233.273438 209.335938 233.652344 C 209.785156 234.03125 210.15625 234.480469 210.457031 235 L 210.519531 235 L 210.519531 222.800781 L 212.441406 222.800781 L 212.441406 247.394531 L 210.519531 247.394531 Z M 210.519531 244.757812 "/>
<path style=" stroke:none;fill-rule:nonzero;fill:rgb(13.729858%,12.159729%,12.548828%);fill-opacity:1;" d="M 227.746094 232.367188 L 229.667969 232.367188 L 229.667969 247.394531 L 227.746094 247.394531 Z M 227.265625 226.414062 C 227.265625 226 227.402344 225.652344 227.679688 225.371094 C 227.957031 225.089844 228.300781 224.949219 228.703125 224.949219 C 229.109375 224.949219 229.453125 225.089844 229.730469 225.371094 C 230.007812 225.652344 230.148438 226 230.148438 226.414062 C 230.148438 226.824219 230.007812 227.171875 229.730469 227.453125 C 229.453125 227.734375 229.109375 227.875 228.703125 227.875 C 228.300781 227.875 227.957031 227.734375 227.679688 227.453125 C 227.402344 227.171875 227.265625 226.824219 227.265625 226.414062 "/>
<path style=" stroke:none;fill-rule:nonzero;fill:rgb(13.729858%,12.159729%,12.548828%);fill-opacity:1;" d="M 246.441406 239.878906 C 246.441406 240.726562 246.574219 241.523438 246.84375 242.273438 C 247.109375 243.019531 247.496094 243.667969 248.011719 244.222656 C 248.523438 244.777344 249.140625 245.214844 249.867188 245.539062 C 250.59375 245.867188 251.402344 246.027344 252.300781 246.027344 C 253.199219 246.027344 254.007812 245.867188 254.734375 245.539062 C 255.460938 245.214844 256.078125 244.777344 256.59375 244.222656 C 257.105469 243.667969 257.492188 243.019531 257.757812 242.273438 C 258.027344 241.523438 258.160156 240.726562 258.160156 239.878906 C 258.160156 239.035156 258.027344 238.238281 257.757812 237.488281 C 257.492188 236.742188 257.105469 236.089844 256.59375 235.539062 C 256.078125 234.984375 255.460938 234.546875 254.734375 234.21875 C 254.007812 233.894531 253.199219 233.734375 252.300781 233.734375 C 251.402344 233.734375 250.59375 233.894531 249.867188 234.21875 C 249.140625 234.546875 248.523438 234.984375 248.011719 235.539062 C 247.496094 236.089844 247.109375 236.742188 246.84375 237.488281 C 246.574219 238.238281 246.441406 239.035156 246.441406 239.878906 M 244.523438 239.878906 C 244.523438 238.730469 244.714844 237.675781 245.097656 236.707031 C 245.480469 235.746094 246.015625 234.910156 246.699219 234.203125 C 247.382812 233.5 248.203125 232.953125 249.164062 232.5625 C 250.125 232.171875 251.171875 231.976562 252.300781 231.976562 C 253.433594 231.976562 254.472656 232.171875 255.421875 232.5625 C 256.371094 232.953125 257.195312 233.5 257.886719 234.203125 C 258.582031 234.910156 259.121094 235.746094 259.503906 236.707031 C 259.886719 237.675781 260.082031 238.730469 260.082031 239.878906 C 260.082031 241.03125 259.886719 242.085938 259.503906 243.050781 C 259.121094 244.015625 258.582031 244.851562 257.886719 245.558594 C 257.195312 246.261719 256.371094 246.808594 255.421875 247.199219 C 254.472656 247.589844 253.433594 247.785156 252.300781 247.785156 C 251.171875 247.785156 250.125 247.589844 249.164062 247.199219 C 248.203125 246.808594 247.382812 246.261719 246.699219 245.558594 C 246.015625 244.851562 245.480469 244.015625 245.097656 243.050781 C 244.714844 242.085938 244.523438 241.03125 244.523438 239.878906 "/>
<path style=" stroke:none;fill-rule:nonzero;fill:rgb(13.729858%,12.159729%,12.548828%);fill-opacity:1;" d="M 305.574219 245.183594 C 304.847656 246.074219 304.027344 246.726562 303.109375 247.152344 C 302.191406 247.574219 301.199219 247.785156 300.132812 247.785156 C 299.003906 247.785156 297.957031 247.589844 296.996094 247.199219 C 296.035156 246.808594 295.214844 246.261719 294.53125 245.558594 C 293.847656 244.851562 293.3125 244.015625 292.929688 243.050781 C 292.546875 242.085938 292.355469 241.03125 292.355469 239.878906 C 292.355469 238.730469 292.546875 237.675781 292.929688 236.710938 C 293.3125 235.746094 293.847656 234.910156 294.53125 234.203125 C 295.214844 233.5 296.035156 232.953125 296.996094 232.5625 C 297.957031 232.171875 299.003906 231.976562 300.132812 231.976562 C 301.222656 231.976562 302.230469 232.203125 303.160156 232.660156 C 304.085938 233.113281 304.914062 233.753906 305.640625 234.578125 L 304.105469 235.75 C 303.546875 235.121094 302.941406 234.628906 302.277344 234.269531 C 301.617188 233.910156 300.902344 233.730469 300.132812 233.730469 C 299.234375 233.730469 298.425781 233.894531 297.699219 234.21875 C 296.972656 234.546875 296.355469 234.984375 295.84375 235.539062 C 295.328125 236.089844 294.941406 236.742188 294.675781 237.488281 C 294.40625 238.238281 294.273438 239.035156 294.273438 239.878906 C 294.273438 240.726562 294.40625 241.523438 294.675781 242.273438 C 294.941406 243.019531 295.328125 243.671875 295.84375 244.222656 C 296.355469 244.777344 296.972656 245.214844 297.699219 245.539062 C 298.425781 245.867188 299.234375 246.027344 300.132812 246.027344 C 300.945312 246.027344 301.6875 245.839844 302.359375 245.460938 C 303.03125 245.078125 303.613281 244.578125 304.105469 243.945312 Z M 305.574219 245.183594 "/>
<path style=" stroke:none;fill-rule:nonzero;fill:rgb(13.729858%,12.159729%,12.548828%);fill-opacity:1;" d="M 318.832031 236.59375 C 318.832031 236.3125 318.820312 235.972656 318.796875 235.570312 C 318.777344 235.167969 318.761719 234.761719 318.75 234.351562 C 318.742188 233.9375 318.722656 233.554688 318.703125 233.195312 C 318.683594 232.835938 318.671875 232.5625 318.671875 232.367188 L 320.59375 232.367188 C 320.613281 232.929688 320.628906 233.472656 320.640625 233.992188 C 320.648438 234.511719 320.675781 234.851562 320.722656 235 C 321.210938 234.113281 321.839844 233.386719 322.609375 232.820312 C 323.378906 232.257812 324.316406 231.976562 325.425781 231.976562 C 325.617188 231.976562 325.804688 231.992188 325.988281 232.023438 C 326.167969 232.058594 326.355469 232.09375 326.546875 232.136719 L 326.324219 234.058594 C 326.066406 233.972656 325.820312 233.929688 325.585938 233.929688 C 324.753906 233.929688 324.035156 234.0625 323.425781 234.335938 C 322.816406 234.605469 322.316406 234.980469 321.921875 235.457031 C 321.527344 235.933594 321.230469 236.492188 321.039062 237.132812 C 320.847656 237.773438 320.75 238.460938 320.75 239.199219 L 320.75 247.394531 L 318.832031 247.394531 Z M 318.832031 236.59375 "/>
<path style=" stroke:none;fill-rule:nonzero;fill:rgb(13.729858%,12.159729%,12.548828%);fill-opacity:1;" d="M 350.753906 238.613281 C 350.753906 237.941406 350.617188 237.308594 350.351562 236.726562 C 350.085938 236.140625 349.722656 235.625 349.261719 235.179688 C 348.804688 234.734375 348.257812 234.382812 347.628906 234.121094 C 347 233.863281 346.332031 233.730469 345.628906 233.730469 C 344.582031 233.730469 343.714844 233.949219 343.019531 234.382812 C 342.328125 234.816406 341.777344 235.316406 341.371094 235.878906 C 340.964844 236.445312 340.675781 236.992188 340.507812 237.523438 C 340.335938 238.054688 340.25 238.417969 340.25 238.613281 Z M 352.222656 244.5625 C 351.476562 245.714844 350.554688 246.539062 349.453125 247.035156 C 348.355469 247.535156 347.144531 247.785156 345.820312 247.785156 C 344.6875 247.785156 343.664062 247.589844 342.746094 247.199219 C 341.828125 246.808594 341.039062 246.261719 340.378906 245.558594 C 339.714844 244.851562 339.210938 244.019531 338.859375 243.050781 C 338.503906 242.085938 338.328125 241.019531 338.328125 239.847656 C 338.328125 238.722656 338.511719 237.679688 338.871094 236.726562 C 339.238281 235.769531 339.75 234.941406 340.410156 234.238281 C 341.070312 233.53125 341.851562 232.980469 342.746094 232.578125 C 343.644531 232.175781 344.636719 231.976562 345.726562 231.976562 C 346.855469 231.976562 347.855469 232.175781 348.71875 232.578125 C 349.582031 232.980469 350.308594 233.511719 350.894531 234.171875 C 351.480469 234.832031 351.925781 235.585938 352.222656 236.433594 C 352.523438 237.277344 352.671875 238.132812 352.671875 239.003906 L 352.671875 240.367188 L 340.25 240.367188 C 340.25 240.78125 340.332031 241.304688 340.488281 241.945312 C 340.652344 242.585938 340.945312 243.210938 341.371094 243.816406 C 341.796875 244.425781 342.367188 244.945312 343.082031 245.378906 C 343.800781 245.8125 344.722656 246.027344 345.851562 246.027344 C 346.832031 246.027344 347.785156 245.789062 348.703125 245.3125 C 349.621094 244.835938 350.324219 244.1875 350.816406 243.363281 Z M 352.222656 244.5625 "/>
<path style=" stroke:none;fill-rule:nonzero;fill:rgb(13.729858%,12.159729%,12.548828%);fill-opacity:1;" d="M 374.859375 239.847656 C 374.050781 239.847656 373.265625 239.902344 372.507812 240.011719 C 371.75 240.117188 371.066406 240.304688 370.457031 240.5625 C 369.851562 240.824219 369.363281 241.171875 369 241.605469 C 368.636719 242.039062 368.457031 242.582031 368.457031 243.230469 C 368.457031 243.6875 368.558594 244.09375 368.761719 244.449219 C 368.964844 244.808594 369.226562 245.101562 369.546875 245.328125 C 369.867188 245.554688 370.222656 245.730469 370.621094 245.847656 C 371.015625 245.96875 371.414062 246.027344 371.820312 246.027344 C 372.84375 246.027344 373.6875 245.878906 374.347656 245.574219 C 375.011719 245.269531 375.539062 244.875 375.933594 244.386719 C 376.328125 243.898438 376.601562 243.34375 376.75 242.726562 C 376.898438 242.109375 376.972656 241.484375 376.972656 240.855469 L 376.972656 239.847656 Z M 378.703125 241.085938 C 378.703125 241.824219 378.707031 242.484375 378.71875 243.070312 C 378.730469 243.65625 378.746094 244.195312 378.765625 244.695312 C 378.789062 245.195312 378.8125 245.660156 378.847656 246.09375 C 378.878906 246.527344 378.925781 246.960938 378.992188 247.394531 L 377.199219 247.394531 C 377.070312 246.65625 377.007812 245.84375 377.007812 244.957031 L 376.941406 244.957031 C 376.386719 245.929688 375.699219 246.648438 374.875 247.101562 C 374.054688 247.558594 373.015625 247.785156 371.753906 247.785156 C 371.113281 247.785156 370.484375 247.703125 369.867188 247.542969 C 369.246094 247.378906 368.691406 247.117188 368.199219 246.761719 C 367.710938 246.402344 367.308594 245.941406 367 245.378906 C 366.691406 244.8125 366.535156 244.132812 366.535156 243.328125 C 366.535156 242.179688 366.824219 241.269531 367.402344 240.597656 C 367.976562 239.925781 368.6875 239.417969 369.53125 239.082031 C 370.375 238.746094 371.269531 238.53125 372.21875 238.433594 C 373.167969 238.335938 374.007812 238.285156 374.730469 238.285156 L 376.972656 238.285156 L 376.972656 237.375 C 376.972656 236.074219 376.578125 235.144531 375.789062 234.578125 C 375 234.015625 374.007812 233.730469 372.8125 233.730469 C 371.105469 233.730469 369.597656 234.296875 368.296875 235.421875 L 367.175781 234.089844 C 367.882812 233.398438 368.757812 232.871094 369.800781 232.511719 C 370.847656 232.15625 371.851562 231.976562 372.8125 231.976562 C 374.605469 231.976562 376.035156 232.40625 377.101562 233.261719 C 378.167969 234.117188 378.703125 235.5 378.703125 237.410156 Z M 378.703125 241.085938 "/>
<path style=" stroke:none;fill-rule:nonzero;fill:rgb(13.729858%,12.159729%,12.548828%);fill-opacity:1;" d="M 401.304688 234.121094 L 397.082031 234.121094 L 397.082031 243.914062 C 397.082031 244.585938 397.261719 245.105469 397.625 245.476562 C 397.988281 245.84375 398.488281 246.027344 399.128906 246.027344 C 399.492188 246.027344 399.859375 245.980469 400.234375 245.882812 C 400.605469 245.785156 400.964844 245.660156 401.304688 245.507812 L 401.46875 247.265625 C 401.105469 247.394531 400.6875 247.515625 400.21875 247.621094 C 399.746094 247.730469 399.332031 247.785156 398.96875 247.785156 C 398.285156 247.785156 397.699219 247.683594 397.207031 247.476562 C 396.71875 247.269531 396.324219 246.996094 396.023438 246.648438 C 395.726562 246.300781 395.507812 245.894531 395.367188 245.425781 C 395.226562 244.960938 395.160156 244.457031 395.160156 243.914062 L 395.160156 234.121094 L 391.957031 234.121094 L 391.957031 232.367188 L 395.160156 232.367188 L 395.160156 228.039062 L 397.082031 228.039062 L 397.082031 232.367188 L 401.304688 232.367188 Z M 401.304688 234.121094 "/>
<path style=" stroke:none;fill-rule:nonzero;fill:rgb(13.729858%,12.159729%,12.548828%);fill-opacity:1;" d="M 415.328125 232.367188 L 417.25 232.367188 L 417.25 247.394531 L 415.328125 247.394531 Z M 414.847656 226.414062 C 414.847656 226 414.988281 225.652344 415.265625 225.371094 C 415.542969 225.089844 415.882812 224.949219 416.289062 224.949219 C 416.695312 224.949219 417.035156 225.089844 417.3125 225.371094 C 417.589844 225.652344 417.730469 226 417.730469 226.414062 C 417.730469 226.824219 417.589844 227.171875 417.3125 227.453125 C 417.035156 227.734375 416.695312 227.875 416.289062 227.875 C 415.882812 227.875 415.542969 227.734375 415.265625 227.453125 C 414.988281 227.171875 414.847656 226.824219 414.847656 226.414062 "/>
<path style=" stroke:none;fill-rule:nonzero;fill:rgb(13.729858%,12.159729%,12.548828%);fill-opacity:1;" d="M 430.855469 232.367188 L 433.035156 232.367188 L 437.964844 245.28125 L 442.765625 232.367188 L 444.71875 232.367188 L 438.894531 247.394531 L 436.90625 247.394531 Z M 430.855469 232.367188 "/>
<path style=" stroke:none;fill-rule:nonzero;fill:rgb(13.729858%,12.159729%,12.548828%);fill-opacity:1;" d="M 459.097656 239.878906 C 459.097656 240.726562 459.230469 241.523438 459.496094 242.273438 C 459.761719 243.019531 460.152344 243.667969 460.664062 244.222656 C 461.175781 244.777344 461.796875 245.214844 462.523438 245.539062 C 463.246094 245.867188 464.058594 246.027344 464.957031 246.027344 C 465.851562 246.027344 466.664062 245.867188 467.390625 245.539062 C 468.113281 245.214844 468.734375 244.777344 469.246094 244.222656 C 469.757812 243.667969 470.148438 243.019531 470.414062 242.273438 C 470.679688 241.523438 470.816406 240.726562 470.816406 239.878906 C 470.816406 239.035156 470.679688 238.238281 470.414062 237.488281 C 470.148438 236.742188 469.757812 236.089844 469.246094 235.539062 C 468.734375 234.984375 468.113281 234.546875 467.390625 234.21875 C 466.664062 233.894531 465.851562 233.734375 464.957031 233.734375 C 464.058594 233.734375 463.246094 233.894531 462.523438 234.21875 C 461.796875 234.546875 461.175781 234.984375 460.664062 235.539062 C 460.152344 236.089844 459.761719 236.742188 459.496094 237.488281 C 459.230469 238.238281 459.097656 239.035156 459.097656 239.878906 M 457.175781 239.878906 C 457.175781 238.730469 457.367188 237.675781 457.75 236.707031 C 458.136719 235.746094 458.667969 234.910156 459.351562 234.203125 C 460.035156 233.5 460.855469 232.953125 461.816406 232.5625 C 462.777344 232.171875 463.824219 231.976562 464.957031 231.976562 C 466.085938 231.976562 467.128906 232.171875 468.078125 232.5625 C 469.027344 232.953125 469.847656 233.5 470.542969 234.203125 C 471.234375 234.910156 471.773438 235.746094 472.160156 236.707031 C 472.542969 237.675781 472.734375 238.730469 472.734375 239.878906 C 472.734375 241.03125 472.542969 242.085938 472.160156 243.050781 C 471.773438 244.015625 471.234375 244.851562 470.542969 245.558594 C 469.847656 246.261719 469.027344 246.808594 468.078125 247.199219 C 467.128906 247.589844 466.085938 247.785156 464.957031 247.785156 C 463.824219 247.785156 462.777344 247.589844 461.816406 247.199219 C 460.855469 246.808594 460.035156 246.261719 459.351562 245.558594 C 458.667969 244.851562 458.136719 244.015625 457.75 243.050781 C 457.367188 242.085938 457.175781 241.03125 457.175781 239.878906 "/>
</g>
</svg>
